<svg xmlns="http://www.w3.org/2000/svg" version="1.1" xmlns:xlink="http://www.w3.org/1999/xlink" width="512" height="512" x="0" y="0" viewBox="0 0 448 448" style="enable-background:new 0 0 512 512" xml:space="preserve" class=""><g><linearGradient id="a" x1="-72.554" x2="-56.394" y1="584.486" y2="600.646" gradientTransform="matrix(16 0 0 -16 1230 9731)" gradientUnits="userSpaceOnUse"><stop offset="0" stop-color="#f2551c"></stop><stop offset="1" stop-color="#ffd432"></stop></linearGradient><path fill="url(#a)" d="M336 224c.041 61.856-50.07 112.033-111.926 112.074a112.002 112.002 0 0 1-53.994-13.834c-7.731-4.281-10.527-14.018-6.247-21.748l.007-.012c4.279-7.641 13.906-10.422 21.6-6.24A81.121 81.121 0 0 0 224 304c44.183.014 80.012-35.791 80.026-79.974S268.234 144.014 224.052 144a80.003 80.003 0 0 0-69.492 40.32c-4.418 7.688-14.232 10.338-21.92 5.92s-10.338-14.232-5.92-21.92c30.653-53.726 99.057-72.431 152.783-41.777C314.491 146.505 336.064 183.718 336 224zm-80 0c0-17.673-14.327-32-32-32s-32 14.327-32 32 14.327 32 32 32 32-14.327 32-32zm192 0c0 8.837-7.163 16-16 16h-16c-7.547 93.899-82.101 168.453-176 176v16c0 8.837-7.163 16-16 16s-16-7.163-16-16v-16c-93.586-7.919-167.708-82.378-175.2-176H16c-8.837 0-16-7.163-16-16s7.163-16 16-16h16c7.919-93.586 82.378-167.708 176-175.2V16c0-8.837 7.163-16 16-16s16 7.163 16 16v16c93.899 7.547 168.453 82.101 176 176h16c8.837 0 16 7.163 16 16zm-64 16h-16c-8.837 0-16-7.163-16-16s7.163-16 16-16h16c-7.674-75.982-67.976-135.95-144-143.2V80c0 8.837-7.163 16-16 16s-16-7.163-16-16V64c-75.982 7.674-135.95 67.976-143.2 144H80c8.837 0 16 7.163 16 16s-7.163 16-16 16H64c7.315 76.294 67.706 136.685 144 144v-16c0-8.837 7.163-16 16-16s16 7.163 16 16v16c76.294-7.315 136.685-67.706 144-144zm-240-16c0-8.837-7.163-16-16-16s-16 7.163-16 16 7.163 16 16 16 16-7.163 16-16zm0 32c-8.837 0-16 7.163-16 16s7.163 16 16 16 16-7.163 16-16-7.163-16-16-16z" opacity="1" data-original="url(#a)" class=""></path></g></svg>